<svg xmlns="http://www.w3.org/2000/svg" xml:space="preserve" viewBox="0 0 256 256"><g stroke-width="0" stroke-miterlimit="10" fill="#ffa500"><path d="M45 68a23 23 0 1 1 0-46 23 23 0 0 1 0 46zM38.7 17.6a1 1 0 0 1-1-1.4L44.1.6a1 1 0 0 1 1.8 0l6.4 15.6a1 1 0 0 1-1.2 1.4 28.8 28.8 0 0 0-12.4 0zM45 90a1 1 0 0 1-1-.6l-6.3-15.6a1 1 0 0 1 1.2-1.4c4 .9 8.2.9 12.2 0a1 1 0 0 1 1.2 1.4l-6.4 15.6a1 1 0 0 1-.9.6zM16.6 52.3a1 1 0 0 1-.4 0L.6 45.9a1 1 0 0 1 0-1.8l15.6-6.4a1 1 0 0 1 1.4 1.2 28.8 28.8 0 0 0 0 12.2 1 1 0 0 1-1 1.2zM73.4 52.3a1 1 0 0 1-1-1.2 29 29 0 0 0 0-12.2 1 1 0 0 1 1.4-1.2l15.6 6.4a1 1 0 0 1 0 1.8l-15.6 6.4a1 1 0 0 1-.4 0zM20.4 30.4a1 1 0 0 1-.9-.6L13 14.3a1 1 0 0 1 1.3-1.3l15.5 6.5a1 1 0 0 1 .2 1.8 28.9 28.9 0 0 0-8.7 8.7 1 1 0 0 1-.9.4zM76.1 77.1a1 1 0 0 1-.4 0l-15.5-6.6a1 1 0 0 1-.2-1.8 28.9 28.9 0 0 0 8.7-8.7 1 1 0 0 1 1.8.2L77 75.7a1 1 0 0 1-.9 1.4zM69.6 30.4a1 1 0 0 1-.9-.4 28.9 28.9 0 0 0-8.7-8.7 1 1 0 0 1 .2-1.8L75.7 13a1 1 0 0 1 1.3 1.3l-6.5 15.5a1 1 0 0 1-1 .6zM13.9 77.1a1 1 0 0 1-1-1.4l6.6-15.5c.2-.3.5-.6.9-.6.3 0 .7.1.9.4a28.9 28.9 0 0 0 8.7 8.7 1 1 0 0 1-.2 1.8L14.3 77a1 1 0 0 1-.4.1z" transform="matrix(2.81 0 0 2.81 1.4 1.4)"/></g></svg>